<?xml version="1.0" encoding="UTF-8"?>
<svg id="Layer_2" xmlns="http://www.w3.org/2000/svg" viewBox="0 0 415.5 370.85">
  <defs>
    <style>
      .cls-1, .cls-2 {
        fill: #2dbec6;
      }

      .cls-1, .cls-3 {
        fill-rule: evenodd;
      }

      .cls-4, .cls-3 {
        fill: #143345;
      }

      .cls-5 {
        font-family: Urbanist-ExtraBold, Urbanist;
        font-size: 57.39px;
        font-weight: 700;
      }
    </style>
  </defs>
  <g id="Layer_1-2" data-name="Layer_1">
    <g>
      <path class="cls-3" d="M87.03,179.66h-17.09v11.37c-24.32,16.93-47.65,36.45-69.94,58.6v45.94h69.94v5.3H0V0h69.94v110.46h76.25V0h69.62v123.25c-45.42,12-88.4,30.76-128.78,56.41ZM215.81,300.87h-69.62v-103.04c9.09-6.03,18.83-11.95,29.16-17.7-1.32,6.46-2.12,13.26-2.31,20.37-.92,34.37,12.13,73.11,42.77,90.31v10.05Z"/>
      <text class="cls-5" transform="translate(2.5 356.51)"><tspan class="cls-2" x="0" y="0">HEALTH</tspan><tspan class="cls-4" x="217.03" y="0">ALPHA</tspan></text>
      <path class="cls-1" d="M385.29,245.25c-2.39,5.9-3.2,14.13-8.67,18.03-4.67,3.33-11.58,3.49-16.06-.27-4.4-3.69-7.06-13.52-8.64-18.91-2.76-9.4-5.16-12.86-2.17-22.69,4.96-16.38,9.88-32.76,14.74-49.16,5.09-17.26,10.7-34.5,14.58-52.07l.03-.15c12.07-1.39,24.22-2.35,36.4-2.82C253.94,97.22,113.54,142.11,0,254.93v45.94h71.16c-6.89-32.79,38.12-79.63,108.56-117.84-.99,5.59-1.6,11.42-1.76,17.48-1.07,39.68,16.48,85.17,58.2,96.64,37.48,10.32,72.95-.78,94.34-33.73,5.39,17.59,13.13,35.75,34.36,37.12,29.38,1.9,37.57-29.46,39.58-52.62l.61-7.03-18.23.57-1.53,3.79ZM299.17,238.95c-5,12.06-12.11,26.54-23.9,33.25-13.22,7.52-28.18,1.82-36.95-9.63-10.22-13.34-11.82-30.04-12.21-46.28-.36-14.82.05-39.82,7.37-58.57,15.79-6.42,32.31-12.3,49.37-17.48,15.95,12.2,26.65,37.26,30.08,53.14,1.49,6.92-10.61,37.98-13.75,45.58ZM328.75,143.85l-3.34,11.92c-4.28-9.1-9.24-16.81-14.68-23.25,7.46-1.86,14.99-3.58,22.59-5.14-1.25,4.26-2.67,9.65-4.57,16.47Z"/>
    </g>
  </g>
</svg>