<?xml version="1.0" encoding="UTF-8"?><svg id="Root" xmlns="http://www.w3.org/2000/svg" viewBox="0 0 1921 1077"><rect width="1920" height="1077" style="fill:#d6f1f7;"/><path d="M1,0h1920v413.04h-11.83c-120.55,0-239.92-23.63-351.38-69.56l-62.86-25.9c-37.32-15.38-80.12,1.61-96.73,38.4h0c-45.7,101.18,102.74,243.03-102.2,178.02l-162-43h.06c-55.06-20-96.29-9.14-139.08-31.63-93.16-48.97-50.7,60.13-83.68,89.06-114.23,100.21-212.46,62.64-285.97-12.18-82.3-83.76-206.8-109.91-315.07-64.43l-.64.27c-37.54,15.77-79.95-7.69-86.56-47.86l-12.7-77.26c-13.94-84.85-51.98-163.9-109.58-227.74L1,8.62" style="fill:#224557;"/><g id="Page-1"><g id="bubbles"><path id="Combined-Shape" d="M1612.61,790.81c13.28,0,24.04-10.76,24.04-24.04s-10.76-24.04-24.04-24.04-24.04,10.76-24.04,24.04,10.76,24.04,24.04,24.04ZM1777.43,876.66c13.28,0,24.04-10.76,24.04-24.04s-10.76-24.04-24.04-24.04-24.04,10.76-24.04,24.04,10.76,24.04,24.04,24.04ZM1629.78,852.62c5.69,0,10.3-4.61,10.3-10.3s-4.61-10.3-10.3-10.3-10.3,4.61-10.3,10.3,4.61,10.3,10.3,10.3ZM1846.11,959.07c5.69,0,10.3-4.61,10.3-10.3s-4.61-10.3-10.3-10.3-10.3,4.61-10.3,10.3,4.61,10.3,10.3,10.3ZM1691.59,1038.05c5.69,0,10.3-4.61,10.3-10.3s-4.61-10.3-10.3-10.3-10.3,4.61-10.3,10.3,4.61,10.3,10.3,10.3ZM1883.88,777.07c5.69,0,10.3-4.61,10.3-10.3s-4.61-10.3-10.3-10.3-10.3,4.61-10.3,10.3,4.61,10.3,10.3,10.3ZM1616.04,1024.31c7.59,0,13.74-6.15,13.74-13.74s-6.15-13.74-13.74-13.74-13.74,6.15-13.74,13.74,6.15,13.74,13.74,13.74ZM1712.19,801.11c7.59,0,13.74-6.15,13.74-13.74s-6.15-13.74-13.74-13.74-13.74,6.15-13.74,13.74,6.15,13.74,13.74,13.74ZM1791.17,763.34c9.48,0,17.17-7.69,17.17-17.17s-7.69-17.17-17.17-17.17-17.17,7.69-17.17,17.17,7.69,17.17,17.17,17.17ZM1770.56,969.37c7.59,0,13.74-6.15,13.74-13.74s-6.15-13.74-13.74-13.74-13.74,6.15-13.74,13.74,6.15,13.74,13.74,13.74ZM1870.15,1044.91c9.48,0,17.17-7.69,17.17-17.17s-7.69-17.17-17.17-17.17-17.17,7.69-17.17,17.17,7.69,17.17,17.17,17.17ZM1684.72,945.33c9.48,0,17.17-7.69,17.17-17.17s-7.69-17.17-17.17-17.17-17.17,7.69-17.17,17.17,7.69,17.17,17.17,17.17ZM1880.45,900.69c9.48,0,17.17-7.69,17.17-17.17s-7.69-17.17-17.17-17.17-17.17,7.69-17.17,17.17,7.69,17.17,17.17,17.17ZM1849.54,828.58c3.79,0,6.87-3.07,6.87-6.87s-3.07-6.87-6.87-6.87-6.87,3.07-6.87,6.87,3.07,6.87,6.87,6.87ZM1780.87,1041.48c3.79,0,6.87-3.07,6.87-6.87s-3.07-6.87-6.87-6.87-6.87,3.07-6.87,6.87,3.07,6.87,6.87,6.87ZM1695.02,869.79c3.79,0,6.87-3.07,6.87-6.87s-3.07-6.87-6.87-6.87-6.87,3.07-6.87,6.87,3.07,6.87,6.87,6.87ZM1616.04,935.03c3.79,0,6.87-3.07,6.87-6.87s-3.07-6.87-6.87-6.87-6.87,3.07-6.87,6.87,3.07,6.87,6.87,6.87Z" style="fill:rgba(20,51,69,.2); fill-rule:evenodd;"/></g></g><g id="Page-1-2"><g id="bubbles-2"><path id="Combined-Shape-2" d="M46.75,815.66c12.81,0,23.2-10.39,23.2-23.2,0-12.81-10.39-23.2-23.2-23.2-12.81,0-23.2,10.39-23.2,23.2,0,12.81,10.39,23.2,23.2,23.2ZM205.83,898.51c12.81,0,23.2-10.39,23.2-23.2,0-12.81-10.39-23.2-23.2-23.2-12.81,0-23.2,10.39-23.2,23.2,0,12.81,10.39,23.2,23.2,23.2ZM63.32,875.31c5.49,0,9.94-4.45,9.94-9.94,0-5.49-4.45-9.94-9.94-9.94-5.49,0-9.94,4.45-9.94,9.94s4.45,9.94,9.94,9.94ZM272.12,978.06c5.49,0,9.94-4.45,9.94-9.94s-4.45-9.94-9.94-9.94-9.94,4.45-9.94,9.94,4.45,9.94,9.94,9.94ZM122.98,1054.29c5.49,0,9.94-4.45,9.94-9.94s-4.45-9.94-9.94-9.94-9.94,4.45-9.94,9.94,4.45,9.94,9.94,9.94ZM308.58,802.4c5.49,0,9.94-4.45,9.94-9.94s-4.45-9.94-9.94-9.94-9.94,4.45-9.94,9.94,4.45,9.94,9.94,9.94ZM50.06,1041.03c7.32,0,13.26-5.94,13.26-13.26s-5.94-13.26-13.26-13.26c-7.32,0-13.26,5.94-13.26,13.26s5.94,13.26,13.26,13.26ZM142.86,825.6c7.32,0,13.26-5.94,13.26-13.26s-5.94-13.26-13.26-13.26-13.26,5.94-13.26,13.26,5.94,13.26,13.26,13.26ZM219.09,789.14c9.15,0,16.57-7.42,16.57-16.57,0-9.15-7.42-16.57-16.57-16.57s-16.57,7.42-16.57,16.57c0,9.15,7.42,16.57,16.57,16.57ZM199.21,988c7.32,0,13.26-5.94,13.26-13.26s-5.94-13.26-13.26-13.26-13.26,5.94-13.26,13.26c0,7.32,5.94,13.26,13.26,13.26ZM295.32,1060.91c9.15,0,16.57-7.42,16.57-16.57s-7.42-16.57-16.57-16.57-16.57,7.42-16.57,16.57,7.42,16.57,16.57,16.57ZM116.35,964.8c9.15,0,16.57-7.42,16.57-16.57s-7.42-16.57-16.57-16.57c-9.15,0-16.57,7.42-16.57,16.57s7.42,16.57,16.57,16.57ZM305.26,921.71c9.15,0,16.57-7.42,16.57-16.57s-7.42-16.57-16.57-16.57c-9.15,0-16.57,7.42-16.57,16.57s7.42,16.57,16.57,16.57ZM275.43,852.11c3.66,0,6.63-2.97,6.63-6.63s-2.97-6.63-6.63-6.63c-3.66,0-6.63,2.97-6.63,6.63s2.97,6.63,6.63,6.63ZM209.15,1057.6c3.66,0,6.63-2.97,6.63-6.63s-2.97-6.63-6.63-6.63-6.63,2.97-6.63,6.63,2.97,6.63,6.63,6.63ZM126.29,891.89c3.66,0,6.63-2.97,6.63-6.63s-2.97-6.63-6.63-6.63-6.63,2.97-6.63,6.63,2.97,6.63,6.63,6.63ZM50.06,954.86c3.66,0,6.63-2.97,6.63-6.63s-2.97-6.63-6.63-6.63c-3.66,0-6.63,2.97-6.63,6.63s2.97,6.63,6.63,6.63Z" style="fill:rgba(20,51,69,.2); fill-rule:evenodd;"/></g></g></svg>