<?xml version="1.0" encoding="UTF-8"?><svg id="Root" xmlns="http://www.w3.org/2000/svg" viewBox="0 0 1921 1082.91"><defs><style>.cls-1{fill:#224557;}.cls-2{fill:rgba(20,51,69,.2);fill-rule:evenodd;}.cls-3{fill:#d6f1f7;}</style></defs><rect class="cls-3" x="1" y="4" width="1920" height="1077"/><g id="Page-1"><g id="bubbles"><path id="Combined-Shape" class="cls-2" d="M1631.55,792.81c12.5,0,22.63-10.76,22.63-24.04s-10.13-24.04-22.63-24.04-22.63,10.76-22.63,24.04,10.13,24.04,22.63,24.04ZM1786.75,878.66c12.5,0,22.63-10.76,22.63-24.04s-10.13-24.04-22.63-24.04-22.63,10.76-22.63,24.04,10.13,24.04,22.63,24.04ZM1647.71,854.62c5.36,0,9.7-4.61,9.7-10.3s-4.34-10.3-9.7-10.3-9.7,4.61-9.7,10.3,4.34,10.3,9.7,10.3ZM1851.42,961.07c5.36,0,9.7-4.61,9.7-10.3s-4.34-10.3-9.7-10.3-9.7,4.61-9.7,10.3,4.34,10.3,9.7,10.3ZM1705.92,1040.05c5.36,0,9.7-4.61,9.7-10.3s-4.34-10.3-9.7-10.3-9.7,4.61-9.7,10.3,4.34,10.3,9.7,10.3ZM1886.99,779.07c5.36,0,9.7-4.61,9.7-10.3s-4.34-10.3-9.7-10.3-9.7,4.61-9.7,10.3,4.34,10.3,9.7,10.3ZM1634.78,1026.31c7.14,0,12.93-6.15,12.93-13.74s-5.79-13.74-12.93-13.74-12.93,6.15-12.93,13.74,5.79,13.74,12.93,13.74ZM1725.32,803.11c7.14,0,12.93-6.15,12.93-13.74s-5.79-13.74-12.93-13.74-12.93,6.15-12.93,13.74,5.79,13.74,12.93,13.74ZM1799.69,765.34c8.93,0,16.17-7.69,16.17-17.17s-7.24-17.17-16.17-17.17-16.17,7.69-16.17,17.17,7.24,17.17,16.17,17.17ZM1780.29,971.37c7.14,0,12.93-6.15,12.93-13.74s-5.79-13.74-12.93-13.74-12.93,6.15-12.93,13.74,5.79,13.74,12.93,13.74ZM1874.06,1046.91c8.93,0,16.17-7.69,16.17-17.17s-7.24-17.17-16.17-17.17-16.17,7.69-16.17,17.17,7.24,17.17,16.17,17.17ZM1699.45,947.33c8.93,0,16.17-7.69,16.17-17.17s-7.24-17.17-16.17-17.17-16.17,7.69-16.17,17.17,7.24,17.17,16.17,17.17ZM1883.76,902.69c8.93,0,16.17-7.69,16.17-17.17s-7.24-17.17-16.17-17.17-16.17,7.69-16.17,17.17,7.24,17.17,16.17,17.17ZM1854.66,830.58c3.57,0,6.47-3.07,6.47-6.87s-2.9-6.87-6.47-6.87-6.47,3.07-6.47,6.87,2.9,6.87,6.47,6.87ZM1789.99,1043.48c3.57,0,6.47-3.07,6.47-6.87s-2.9-6.87-6.47-6.87-6.47,3.07-6.47,6.87,2.9,6.87,6.47,6.87ZM1709.15,871.79c3.57,0,6.47-3.07,6.47-6.87s-2.9-6.87-6.47-6.87-6.47,3.07-6.47,6.87,2.9,6.87,6.47,6.87ZM1634.78,937.03c3.57,0,6.47-3.07,6.47-6.87s-2.9-6.87-6.47-6.87-6.47,3.07-6.47,6.87,2.9,6.87,6.47,6.87Z"/></g></g><g id="Page-1-2"><g id="bubbles-2"><path id="Combined-Shape-2" class="cls-2" d="M22.07,837.66c12.07,0,21.85-10.39,21.85-23.2s-9.78-23.2-21.85-23.2c-12.07,0-21.85,10.39-21.85,23.2,0,12.81,9.78,23.2,21.85,23.2ZM171.88,920.51c12.07,0,21.85-10.39,21.85-23.2,0-12.81-9.78-23.2-21.85-23.2-12.07,0-21.85,10.39-21.85,23.2,0,12.81,9.78,23.2,21.85,23.2ZM37.68,897.31c5.17,0,9.36-4.45,9.36-9.94,0-5.49-4.19-9.94-9.36-9.94-5.17,0-9.36,4.45-9.36,9.94s4.19,9.94,9.36,9.94ZM234.29,1000.06c5.17,0,9.36-4.45,9.36-9.94s-4.19-9.94-9.36-9.94-9.36,4.45-9.36,9.94,4.19,9.94,9.36,9.94ZM93.85,1076.29c5.17,0,9.36-4.45,9.36-9.94s-4.19-9.94-9.36-9.94-9.36,4.45-9.36,9.94,4.19,9.94,9.36,9.94ZM268.62,824.4c5.17,0,9.36-4.45,9.36-9.94s-4.19-9.94-9.36-9.94-9.36,4.45-9.36,9.94,4.19,9.94,9.36,9.94ZM25.2,1063.03c6.89,0,12.48-5.94,12.48-13.26,0-7.32-5.59-13.26-12.48-13.26-6.89,0-12.48,5.94-12.48,13.26s5.59,13.26,12.48,13.26ZM112.58,847.6c6.89,0,12.48-5.94,12.48-13.26,0-7.32-5.59-13.26-12.48-13.26s-12.48,5.94-12.48,13.26,5.59,13.26,12.48,13.26ZM184.36,811.14c8.62,0,15.6-7.42,15.6-16.57,0-9.15-6.99-16.57-15.6-16.57s-15.6,7.42-15.6,16.57c0,9.15,6.99,16.57,15.6,16.57ZM165.63,1010c6.89,0,12.48-5.94,12.48-13.26s-5.59-13.26-12.48-13.26-12.48,5.94-12.48,13.26,5.59,13.26,12.48,13.26ZM256.14,1082.91c8.62,0,15.6-7.42,15.6-16.57s-6.99-16.57-15.6-16.57c-8.62,0-15.6,7.42-15.6,16.57s6.99,16.57,15.6,16.57ZM87.61,986.8c8.62,0,15.6-7.42,15.6-16.57s-6.99-16.57-15.6-16.57c-8.62,0-15.6,7.42-15.6,16.57s6.99,16.57,15.6,16.57ZM265.5,943.71c8.62,0,15.6-7.42,15.6-16.57s-6.99-16.57-15.6-16.57c-8.62,0-15.6,7.42-15.6,16.57s6.99,16.57,15.6,16.57ZM237.41,874.11c3.45,0,6.24-2.97,6.24-6.63s-2.79-6.63-6.24-6.63c-3.45,0-6.24,2.97-6.24,6.63s2.79,6.63,6.24,6.63ZM175,1079.6c3.45,0,6.24-2.97,6.24-6.63s-2.79-6.63-6.24-6.63-6.24,2.97-6.24,6.63,2.79,6.63,6.24,6.63ZM96.98,913.89c3.45,0,6.24-2.97,6.24-6.63s-2.79-6.63-6.24-6.63-6.24,2.97-6.24,6.63,2.79,6.63,6.24,6.63ZM25.2,976.86c3.45,0,6.24-2.97,6.24-6.63s-2.79-6.63-6.24-6.63c-3.45,0-6.24,2.97-6.24,6.63s2.79,6.63,6.24,6.63Z"/></g></g><path class="cls-1" d="M1389.72,412.7c-190.7-28.27-203.21,60.44-425.22,55.23-215.18-5.05-269.48-97.74-427.22-84.35-127.69,10.84-135.13,78.23-264.14,84.35-115.56,5.48-211.7-43.75-273.14-84.35V0h1921v328.35c-33.69,52.27-92.05,124.04-182.09,149.62-117.14,33.28-184.81-40.9-349.18-65.27Z"/></svg>