<svg xmlns="http://www.w3.org/2000/svg" xmlns:xlink="http://www.w3.org/1999/xlink" width="1920" height="1080" viewBox="0 0 1920 1080">
  <defs>
    <linearGradient id="linear-gradient" x1="0.5" x2="0.5" y2="1" gradientUnits="objectBoundingBox">
      <stop offset="0" stop-color="#d6f1f7" stop-opacity="0"/>
      <stop offset="0.577" stop-color="#effafc" stop-opacity="0.125"/>
      <stop offset="0.752" stop-color="#41b0cf" stop-opacity="0.22"/>
      <stop offset="1" stop-color="#224557"/>
      <stop offset="1" stop-color="gray"/>
    </linearGradient>
    <clipPath id="clip-Web_1920_1">
      <rect width="1920" height="1080"/>
    </clipPath>
  </defs>
  <g id="Web_1920_1" data-name="Web 1920 – 1" clip-path="url(#clip-Web_1920_1)">
    <rect width="1920" height="1080" fill="url(#linear-gradient)"/>
    <path id="Rectangle_1" data-name="Rectangle 1" d="M0,0H122a0,0,0,0,1,0,0V417a61,61,0,0,1-61,61h0A61,61,0,0,1,0,417V0A0,0,0,0,1,0,0Z" transform="translate(140)" fill="rgba(34,69,87,0.3)"/>
    <path id="Rectangle_2" data-name="Rectangle 2" d="M0,0H122a0,0,0,0,1,0,0V417a61,61,0,0,1-61,61h0A61,61,0,0,1,0,417V0A0,0,0,0,1,0,0Z" transform="translate(278)" fill="rgba(34,69,87,0.3)"/>
    <path id="Rectangle_3" data-name="Rectangle 3" d="M0,0H122a0,0,0,0,1,0,0V417a61,61,0,0,1-61,61h0A61,61,0,0,1,0,417V0A0,0,0,0,1,0,0Z" transform="translate(416)" fill="rgba(34,69,87,0.3)"/>
    <path id="Rectangle_4" data-name="Rectangle 4" d="M0,0H122a0,0,0,0,1,0,0V417a61,61,0,0,1-61,61h0A61,61,0,0,1,0,417V0A0,0,0,0,1,0,0Z" transform="translate(554)" fill="rgba(34,69,87,0.3)"/>
    <path id="Rectangle_5" data-name="Rectangle 5" d="M0,0H122a0,0,0,0,1,0,0V417a61,61,0,0,1-61,61h0A61,61,0,0,1,0,417V0A0,0,0,0,1,0,0Z" transform="translate(692)" fill="rgba(34,69,87,0.3)"/>
    <path id="Rectangle_6" data-name="Rectangle 6" d="M0,0H122a0,0,0,0,1,0,0V417a61,61,0,0,1-61,61h0A61,61,0,0,1,0,417V0A0,0,0,0,1,0,0Z" transform="translate(830)" fill="rgba(34,69,87,0.3)"/>
    <path id="Rectangle_7" data-name="Rectangle 7" d="M0,0H122a0,0,0,0,1,0,0V417a61,61,0,0,1-61,61h0A61,61,0,0,1,0,417V0A0,0,0,0,1,0,0Z" transform="translate(968)" fill="rgba(34,69,87,0.3)"/>
    <path id="Rectangle_8" data-name="Rectangle 8" d="M0,0H122a0,0,0,0,1,0,0V417a61,61,0,0,1-61,61h0A61,61,0,0,1,0,417V0A0,0,0,0,1,0,0Z" transform="translate(1106)" fill="rgba(34,69,87,0.3)"/>
    <path id="Rectangle_9" data-name="Rectangle 9" d="M0,0H122a0,0,0,0,1,0,0V417a61,61,0,0,1-61,61h0A61,61,0,0,1,0,417V0A0,0,0,0,1,0,0Z" transform="translate(1244)" fill="rgba(34,69,87,0.3)"/>
    <path id="Rectangle_10" data-name="Rectangle 10" d="M0,0H122a0,0,0,0,1,0,0V417a61,61,0,0,1-61,61h0A61,61,0,0,1,0,417V0A0,0,0,0,1,0,0Z" transform="translate(1382)" fill="rgba(34,69,87,0.3)"/>
    <path id="Rectangle_11" data-name="Rectangle 11" d="M0,0H122a0,0,0,0,1,0,0V417a61,61,0,0,1-61,61h0A61,61,0,0,1,0,417V0A0,0,0,0,1,0,0Z" transform="translate(1520)" fill="rgba(34,69,87,0.3)"/>
    <path id="Rectangle_12" data-name="Rectangle 12" d="M0,0H122a0,0,0,0,1,0,0V417a61,61,0,0,1-61,61h0A61,61,0,0,1,0,417V0A0,0,0,0,1,0,0Z" transform="translate(1658)" fill="rgba(34,69,87,0.3)"/>
  </g>
</svg>
