<?xml version="1.0" encoding="UTF-8"?>
<svg id="Layer_1" xmlns="http://www.w3.org/2000/svg" viewBox="0 0 1920 1080">
  <g>
    <rect x=".5" y=".5" width="1919" height="1079" style="fill: #7dcee3;"/>
    <path d="M1919,1v1078H1V1h1918M1920,0H0v1080h1920V0h0Z"/>
  </g>
  <rect x="150" y="850" width="120.81" height="100" style="fill: #224557;"/>
  <g id="Rect">
    <rect y="980" width="120.81" height="100" style="fill: #224557;"/>
    <rect x="150" y="980" width="120.81" height="100" style="fill: #224557;"/>
    <rect y="850" width="120.81" height="100" style="fill: #224557;"/>
    <rect y="720" width="120.81" height="100" style="fill: #224557;"/>
    <rect x="150" y="720" width="120.81" height="100" style="fill: #224557;"/>
  </g>
  <rect x="458.24" y="849.72" width="120.81" height="100" style="fill: #224557;"/>
  <g id="Rect-2" data-name="Rect">
    <rect x="308.24" y="979.72" width="120.81" height="100" style="fill: #224557;"/>
    <rect x="458.24" y="979.72" width="120.81" height="100" style="fill: #224557;"/>
    <rect x="308.24" y="849.72" width="120.81" height="100" style="fill: #224557;"/>
    <rect x="308.24" y="719.72" width="120.81" height="100" style="fill: #224557;"/>
    <path d="M458.24,719.72h20.81c55.19,0,100,44.81,100,100h-120.81v-100h0Z" style="fill: #224557;"/>
  </g>
  <path d="M1767.1,576.08c-65.46,31.26-124.2,75.96-174.58,132.84-50.38,56.89-89.97,123.21-117.65,197.12-20.68,55.21-34.02,112.81-39.86,171.95h123.12c5.19-40.59,14.94-80.16,29.21-118.24,21.53-57.48,52.33-109.07,91.54-153.34,39.21-44.27,84.9-79.05,135.8-103.36,33.92-16.2,69.17-27.23,105.33-33.07v-138.99c-52.6,6.56-103.82,21.64-152.9,45.08Z" style="fill: #224557;"/>
  <path d="M1667,1078h252v-254c-134.98,12.65-241.98,120.01-252,254Z" style="fill: #224557;"/>
  <path d="M.56,0C.19,1.91,0,3.87,0,5.85v297.07h0s267.92,157.42,267.92,157.42h0l267.92-157.42V5.85c0-1.99-.19-3.95-.56-5.85H.56Z" style="fill: #224557; opacity: .3;"/>
</svg>